# xmcd
#
# Track frame offsets:
#	150
#	11405
#	20815
#	32980
#	43962
#	53695
#	66720
#	74775
#	85270
#	95315
#	104304
#	115580
#	129185
#	140260
#	150922
#	163700
#
# Disc length: 2331 seconds
#
# Revision: 1
# Processed by: cddbd v1.5PL3 Copyright (c) Steve Scherf et al.
# Submitted via: audiograbber 1.83.01
#
DISCID=d7091910
DTITLE=A - Country Superstars CD 2
DYEAR=1900
DGENRE=Country
TTITLE0=Frankie Laine - Rose, Rose, I Love You
TTITLE1=Hank Lockin - Geisha Girl
TTITLE2=Billie Jo Spears - Misty Blue
TTITLE3=George Jones - Say It Isn´t You
TTITLE4=Willie Nellson - Let´s Pretend
TTITLE5=Freddy Fender - Silver Wings
TTITLE6=Johnny Cash - Guess Things Happen That Way
TTITLE7=Patsy Cline - I Don´t Wanna
TTITLE8=Floyd Tillman - Slipping Around
TTITLE9=Roy Drusky - Peel Me A Nanner
TTITLE10=Johnny Horten - All For The Love Of A Girl
TTITLE11=Webb Pierce - Back Street Affair
TTITLE12=Ned Miller - Do Whant You Do Well
TTITLE13=Leroy Van Dyke - Walk On By
TTITLE14=Billie Jo Spears - Dallas
TTITLE15=Don Gibson - Sea Of Heartbreak
EXTD=
EXTT0=
EXTT1=
EXTT2=
EXTT3=
EXTT4=
EXTT5=
EXTT6=
EXTT7=
EXTT8=
EXTT9=
EXTT10=
EXTT11=
EXTT12=
EXTT13=
EXTT14=
EXTT15=
PLAYORDER=
